# xmcd CD database file
#
# Track frame offsets:
#	150
#	9436
#	20343
#	33234
#	43202
#	52569
#	68126
#	82890
#	94677
#	105273
#	120657
#	139297
#	163491
#	180610
#	195478
#
# Disc length: 2771 seconds
#
# Revision: 0
# Processed by: cddbd v1.5.2PL0 Copyright (c) Steve Scherf et al.
# Submitted via: CDex 1.51
#
DISCID=b60ad10f
DTITLE=Various Artist - Dang Me (Time Life) Disc 1
DYEAR=1900
DGENRE=Country
TTITLE0=The Ballad of Jed Clampett
TTITLE1=May the Bird of Paradise Fly Up Your Nose
TTITLE2=Tennesse Bird Walk
TTITLE3=Dropkick Me Jesus
TTITLE4=Chug-A-Lug
TTITLE5=Redneck Girl
TTITLE6=She got the Goldmine (I got the Shaft)
TTITLE7=Take this Job and Shove It
TTITLE8=Flowers on the wall
TTITLE9=Osama-Yo Mama
TTITLE10=I Love NASCAR
TTITLE11=Uneasy Rider
TTITLE12=A Boy Named Sue
TTITLE13=The Streak
TTITLE14=(How Much Is)That Hound Dog in the Window
EXTD=
EXTT0=
EXTT1=
EXTT2=
EXTT3=
EXTT4=
EXTT5=
EXTT6=
EXTT7=
EXTT8=
EXTT9=
EXTT10=
EXTT11=
EXTT12=
EXTT13=
EXTT14=
PLAYORDER=
